<?xml version="1.0"?>
<svg xmlns="http://www.w3.org/2000/svg" xmlns:xlink="http://www.w3.org/1999/xlink" version="1.1" id="Capa_1" x="0px" y="0px" viewBox="0 0 506.925 506.925" style="enable-background:new 0 0 506.925 506.925;" xml:space="preserve" width="512px" height="512px" class=""><g><g>
	<g>
		<path d="M369.075,137.8c-28.5-28.4-74.7-28.4-103.1,0c-28.4,28.4-28.4,74.7,0,103.1c28.4,28.4,74.7,28.4,103.1,0    C397.475,212.5,397.575,166.2,369.075,137.8z M349.175,221c-17.4,17.4-45.8,17.4-63.2,0c-17.4-17.4-17.4-45.8,0-63.2    c17.4-17.4,45.8-17.4,63.2,0C366.575,175.2,366.575,203.6,349.175,221z" data-original="#000000" class="active-path" data-old_color="#ffffff" fill="#ffffff"/>
	</g>
</g><g>
	<g>
		<path d="M506.875,14.1c0-7.8-6.3-14.1-14.1-14.1c-130.5,0.1-253.3,62.2-330.9,167c-45.5-22.5-97.7-22.9-139.2-0.5    c-8.4,4.8-9.8,15.7-3.2,22.3l85.4,85.4c-5.8,16.5-10.6,33.1-14.2,49.5c-1,4.7,0.4,9.6,3.8,13l75.8,75.8c3.4,3.4,8.3,4.8,13,3.8    c16.5-3.6,33.1-8.4,49.5-14.2l85.4,85.4c7,6.7,17.8,4.9,22.3-3.2c22.5-41.4,22.1-93.7-0.5-139.2    C444.775,267.5,506.975,144.7,506.875,14.1z M313.675,329.3c-6.1,4.2-7.9,12.4-4.1,18.8c19.7,33.2,24.5,71.9,13.8,104.9    l-77.1-77.1c-4.4-4.2-9.8-5.1-15-3.2c-15.5,5.9-31.1,10.7-46.7,14.5l-64.8-64.8c3.7-15.6,8.6-31.2,14.5-46.7c2-5.2,0.7-11-3.2-15    l-77.1-77.1c33-10.7,71.7-6,104.9,13.8c6.4,3.8,14.5,2,18.8-4.1c69-99.4,180.7-160.3,300.8-164.8    C473.975,148.6,413.075,260.3,313.675,329.3z" data-original="#000000" class="active-path" data-old_color="#ffffff" fill="#ffffff"/>
	</g>
</g><g>
	<g>
		<path d="M72.675,351.2c-5.5-5.5-14.4-5.5-19.9,0l-48.6,48.6c-5.5,5.5-5.5,14.4,0,19.9c5.5,5.5,14.4,5.5,19.9,0l48.6-48.6    C78.175,365.6,78.175,356.7,72.675,351.2z" data-original="#000000" class="active-path" data-old_color="#ffffff" fill="#ffffff"/>
	</g>
</g><g>
	<g>
		<path d="M80.275,426.7c-5.5-5.5-14.4-5.5-19.9,0l-48.6,48.6c-5.5,5.5-5.5,14.4,0,19.9s14.4,5.5,19.9,0l48.6-48.6    C85.775,441.1,85.775,432.2,80.275,426.7z" data-original="#000000" class="active-path" data-old_color="#ffffff" fill="#ffffff"/>
	</g>
</g><g>
	<g>
		<path d="M155.775,434.3c-5.5-5.5-14.4-5.5-19.9,0l-48.6,48.6c-5.5,5.5-5.5,14.4,0,19.9s14.4,5.5,19.9,0l48.6-48.6    C161.275,448.7,161.275,439.8,155.775,434.3z" data-original="#000000" class="active-path" data-old_color="#ffffff" fill="#ffffff"/>
	</g>
</g></g> </svg>
